<mxfile host="65bd71144e">
    <diagram id="KyMx_F-SmI5y71zodP5E" name="Page-1">
        <mxGraphModel dx="1538" dy="916" grid="1" gridSize="10" guides="1" tooltips="1" connect="1" arrows="1" fold="1" page="1" pageScale="1" pageWidth="827" pageHeight="1169" math="0" shadow="0">
            <root>
                <mxCell id="0"/>
                <mxCell id="1" parent="0"/>
                <mxCell id="2" value="class WindCalculation()" style="rounded=0;whiteSpace=wrap;html=1;fillColor=#dae8fc;strokeColor=#6c8ebf;" parent="1" vertex="1">
                    <mxGeometry x="280" y="40" width="230" height="30" as="geometry"/>
                </mxCell>
                <mxCell id="3" value="- v_x : int or numpy.ndarray&lt;div&gt;- v_y : int or numpy.ndarray&lt;/div&gt;&lt;div&gt;- height_point : int&lt;/div&gt;&lt;div&gt;- ref_heights : list[int]&lt;/div&gt;" style="rounded=0;whiteSpace=wrap;html=1;align=left;" parent="1" vertex="1">
                    <mxGeometry x="280" y="70" width="230" height="70" as="geometry"/>
                </mxCell>
                <mxCell id="4" value="+ get_velocity_site()&lt;div&gt;+ get_angle_rad()&lt;/div&gt;&lt;div&gt;+ get_angle_deg()&lt;/div&gt;&lt;div&gt;+ get_alpha()&lt;/div&gt;&lt;div&gt;+ calculate_wind_at_height()&lt;/div&gt;" style="rounded=0;whiteSpace=wrap;html=1;align=left;" parent="1" vertex="1">
                    <mxGeometry x="280" y="140" width="230" height="80" as="geometry"/>
                </mxCell>
                <mxCell id="9" style="edgeStyle=none;html=1;exitX=0.5;exitY=0;exitDx=0;exitDy=0;entryX=0.25;entryY=1;entryDx=0;entryDy=0;" parent="1" source="5" target="4" edge="1">
                    <mxGeometry relative="1" as="geometry"/>
                </mxCell>
                <mxCell id="5" value="class DataSite(WindCalculation)" style="rounded=0;whiteSpace=wrap;html=1;fillColor=#dae8fc;strokeColor=#6c8ebf;" parent="1" vertex="1">
                    <mxGeometry x="140" y="280" width="230" height="30" as="geometry"/>
                </mxCell>
                <mxCell id="10" style="edgeStyle=none;html=1;exitX=0.5;exitY=0;exitDx=0;exitDy=0;entryX=0.75;entryY=1;entryDx=0;entryDy=0;" parent="1" source="6" target="4" edge="1">
                    <mxGeometry relative="1" as="geometry"/>
                </mxCell>
                <mxCell id="6" value="class InterpolatedSite(WindCalculation)" style="rounded=0;whiteSpace=wrap;html=1;fillColor=#dae8fc;strokeColor=#6c8ebf;" parent="1" vertex="1">
                    <mxGeometry x="420" y="280" width="230" height="30" as="geometry"/>
                </mxCell>
                <mxCell id="7" value="&lt;div&gt;- dataset :&amp;nbsp;xarray.Dataset&lt;/div&gt;&lt;div&gt;- latitude : int&lt;/div&gt;&lt;div&gt;- longitude : int&lt;/div&gt;&lt;span style=&quot;background-color: transparent;&quot;&gt;- height_point : int&lt;/span&gt;&lt;div&gt;- ref_heights : list[int]&lt;/div&gt;&lt;div&gt;- name : str or None&lt;/div&gt;" style="rounded=0;whiteSpace=wrap;html=1;align=left;" parent="1" vertex="1">
                    <mxGeometry x="140" y="310" width="230" height="100" as="geometry"/>
                </mxCell>
                <mxCell id="8" value="+ load_components()" style="rounded=0;whiteSpace=wrap;html=1;align=left;" parent="1" vertex="1">
                    <mxGeometry x="140" y="410" width="230" height="30" as="geometry"/>
                </mxCell>
                <mxCell id="11" value="Superclass" style="shape=process;whiteSpace=wrap;html=1;backgroundOutline=1;fillColor=#fff2cc;strokeColor=#d6b656;" parent="1" vertex="1">
                    <mxGeometry x="180" y="40" width="90" height="30" as="geometry"/>
                </mxCell>
                <mxCell id="12" value="Subclasses" style="shape=process;whiteSpace=wrap;html=1;backgroundOutline=1;fillColor=#fff2cc;strokeColor=#d6b656;" parent="1" vertex="1">
                    <mxGeometry x="40" y="280" width="90" height="30" as="geometry"/>
                </mxCell>
                <mxCell id="13" value="&lt;div&gt;- dataset :&amp;nbsp;xarray.Dataset&lt;/div&gt;&lt;div&gt;- latitude_point : int&lt;/div&gt;&lt;div&gt;- longitude_point : int&lt;/div&gt;&lt;span style=&quot;background-color: transparent;&quot;&gt;- height_point : int&lt;/span&gt;&lt;div&gt;- ref_heights : list[int]&lt;/div&gt;&lt;div&gt;- name : str or None&lt;/div&gt;" style="rounded=0;whiteSpace=wrap;html=1;align=left;" parent="1" vertex="1">
                    <mxGeometry x="420" y="310" width="230" height="100" as="geometry"/>
                </mxCell>
                <mxCell id="14" value="+ load_components_at_sites()&lt;div&gt;+ interpolate_wind_components()&lt;/div&gt;&lt;div&gt;+ interpolate_angle()&lt;/div&gt;&lt;div&gt;+ weibull_distribution()&lt;/div&gt;&lt;div&gt;+ show_wind_rose()&lt;/div&gt;&lt;div&gt;+ get_AEP&lt;/div&gt;&lt;div&gt;+ compare_AEPs&lt;/div&gt;" style="rounded=0;whiteSpace=wrap;html=1;align=left;" parent="1" vertex="1">
                    <mxGeometry x="420" y="410" width="230" height="110" as="geometry"/>
                </mxCell>
                <mxCell id="15" value="(Standalone) Functions" style="shape=process;whiteSpace=wrap;html=1;backgroundOutline=1;fillColor=#fff2cc;strokeColor=#d6b656;" parent="1" vertex="1">
                    <mxGeometry x="700" y="40" width="170" height="30" as="geometry"/>
                </mxCell>
                <mxCell id="16" value="def load_nc_dataset_to_functions()" style="rounded=0;whiteSpace=wrap;html=1;fillColor=#d5e8d4;strokeColor=#82b366;" parent="1" vertex="1">
                    <mxGeometry x="880" y="40" width="230" height="30" as="geometry"/>
                </mxCell>
                <mxCell id="17" value="&lt;div&gt;Input:&lt;/div&gt;- folder_path :&amp;nbsp;str&lt;br&gt;&lt;div&gt;&lt;br&gt;&lt;/div&gt;&lt;div&gt;Output:&lt;/div&gt;&lt;div&gt;+ ds_all : xarray.Dataset&lt;/div&gt;" style="rounded=0;whiteSpace=wrap;html=1;align=left;" parent="1" vertex="1">
                    <mxGeometry x="880" y="70" width="230" height="80" as="geometry"/>
                </mxCell>
                <mxCell id="18" value="def pdf_weib()" style="rounded=0;whiteSpace=wrap;html=1;fillColor=#d5e8d4;strokeColor=#82b366;" parent="1" vertex="1">
                    <mxGeometry x="880" y="180" width="230" height="30" as="geometry"/>
                </mxCell>
                <mxCell id="19" value="&lt;div&gt;Input:&lt;/div&gt;- k : int&lt;div&gt;&lt;font color=&quot;#000000&quot;&gt;- A : int&lt;/font&gt;&lt;/div&gt;&lt;div&gt;&lt;font color=&quot;#000000&quot;&gt;- u : numpy.ndarray&lt;br&gt;&lt;/font&gt;&lt;div&gt;&lt;br&gt;&lt;/div&gt;&lt;div&gt;Output:&lt;/div&gt;&lt;div&gt;+&amp;nbsp;&lt;span style=&quot;color: rgb(0, 0, 0); background-color: transparent;&quot;&gt;numpy.ndarray&lt;/span&gt;&lt;/div&gt;&lt;/div&gt;" style="rounded=0;whiteSpace=wrap;html=1;align=left;" parent="1" vertex="1">
                    <mxGeometry x="880" y="210" width="230" height="110" as="geometry"/>
                </mxCell>
                <mxCell id="20" value="Flowchart (Example usage)" style="shape=process;whiteSpace=wrap;html=1;backgroundOutline=1;fillColor=#fff2cc;strokeColor=#d6b656;" parent="1" vertex="1">
                    <mxGeometry x="40" y="560" width="130" height="30" as="geometry"/>
                </mxCell>
                <mxCell id="22" value="def load_nc_dataset_to_functions()" style="rounded=0;whiteSpace=wrap;html=1;fillColor=#d5e8d4;strokeColor=#82b366;" parent="1" vertex="1">
                    <mxGeometry x="173" y="650" width="190" height="60" as="geometry"/>
                </mxCell>
                <mxCell id="23" value="" style="endArrow=classic;html=1;entryX=0.5;entryY=0;entryDx=0;entryDy=0;strokeWidth=2;" parent="1" target="22" edge="1">
                    <mxGeometry width="50" height="50" relative="1" as="geometry">
                        <mxPoint x="268" y="600" as="sourcePoint"/>
                        <mxPoint x="463" y="560" as="targetPoint"/>
                    </mxGeometry>
                </mxCell>
                <mxCell id="24" value="folder_path : str" style="text;html=1;align=left;verticalAlign=middle;whiteSpace=wrap;rounded=0;" parent="1" vertex="1">
                    <mxGeometry x="283" y="610" width="150" height="30" as="geometry"/>
                </mxCell>
                <mxCell id="25" value="" style="endArrow=classic;html=1;entryX=0.5;entryY=0;entryDx=0;entryDy=0;strokeWidth=2;exitX=0.5;exitY=1;exitDx=0;exitDy=0;" parent="1" source="22" target="28" edge="1">
                    <mxGeometry width="50" height="50" relative="1" as="geometry">
                        <mxPoint x="265.5" y="710" as="sourcePoint"/>
                        <mxPoint x="265.5" y="760" as="targetPoint"/>
                    </mxGeometry>
                </mxCell>
                <mxCell id="26" value="ds_all : xarray.Dataset" style="text;html=1;align=left;verticalAlign=middle;whiteSpace=wrap;rounded=0;" parent="1" vertex="1">
                    <mxGeometry x="283" y="720" width="150" height="30" as="geometry"/>
                </mxCell>
                <mxCell id="28" value="object InterpolatedSite()" style="rounded=1;whiteSpace=wrap;html=1;fillColor=#dae8fc;strokeColor=#6c8ebf;" parent="1" vertex="1">
                    <mxGeometry x="173" y="760" width="190" height="60" as="geometry"/>
                </mxCell>
                <mxCell id="30" value="" style="endArrow=classic;html=1;entryX=0;entryY=0.75;entryDx=0;entryDy=0;strokeWidth=2;" parent="1" target="28" edge="1">
                    <mxGeometry width="50" height="50" relative="1" as="geometry">
                        <mxPoint x="40" y="805" as="sourcePoint"/>
                        <mxPoint x="103" y="800" as="targetPoint"/>
                    </mxGeometry>
                </mxCell>
                <mxCell id="32" value="" style="endArrow=classic;html=1;strokeWidth=2;exitX=0.5;exitY=1;exitDx=0;exitDy=0;" parent="1" source="28" edge="1">
                    <mxGeometry width="50" height="50" relative="1" as="geometry">
                        <mxPoint x="278" y="610" as="sourcePoint"/>
                        <mxPoint x="268" y="890" as="targetPoint"/>
                    </mxGeometry>
                </mxCell>
                <mxCell id="33" value="" style="verticalLabelPosition=bottom;shadow=0;dashed=0;align=center;html=1;verticalAlign=top;strokeWidth=1;shape=mxgraph.mockup.graphics.plotChart;strokeColor=none;strokeColor2=#aaaaaa;strokeColor3=#666666;fillColor2=#99aaff,#0022ff,#008cff;" parent="1" vertex="1">
                    <mxGeometry x="218" y="900" width="100" height="50" as="geometry"/>
                </mxCell>
                <mxCell id="34" value="Data along with visualizations. This includes: wind distribution, wind rose, and AEP" style="text;html=1;align=left;verticalAlign=middle;whiteSpace=wrap;rounded=0;" parent="1" vertex="1">
                    <mxGeometry x="283" y="830" width="150" height="60" as="geometry"/>
                </mxCell>
                <mxCell id="35" value="self.load_components_at_sites()" style="rounded=1;whiteSpace=wrap;html=1;fillColor=#f8cecc;strokeColor=#b85450;" parent="1" vertex="1">
                    <mxGeometry x="601.13" y="650" width="210" height="60" as="geometry"/>
                </mxCell>
                <mxCell id="36" value="self.interpolate_wind_components()" style="rounded=1;whiteSpace=wrap;html=1;fillColor=#f8cecc;strokeColor=#b85450;" parent="1" vertex="1">
                    <mxGeometry x="601.13" y="760" width="210" height="60" as="geometry"/>
                </mxCell>
                <mxCell id="37" value="super.init()" style="rounded=1;whiteSpace=wrap;html=1;fillColor=#f8cecc;strokeColor=#b85450;" parent="1" vertex="1">
                    <mxGeometry x="661.13" y="870" width="90" height="60" as="geometry"/>
                </mxCell>
                <mxCell id="38" value="self.interpolate_angle()" style="rounded=1;whiteSpace=wrap;html=1;fillColor=#f8cecc;strokeColor=#b85450;" parent="1" vertex="1">
                    <mxGeometry x="601.13" y="981.5" width="210" height="60" as="geometry"/>
                </mxCell>
                <mxCell id="39" value="self.weibull_distribution()" style="rounded=1;whiteSpace=wrap;html=1;fillColor=#f8cecc;strokeColor=#b85450;" parent="1" vertex="1">
                    <mxGeometry x="1131.13" y="660" width="210" height="60" as="geometry"/>
                </mxCell>
                <mxCell id="40" value="self.get_AEP()" style="rounded=1;whiteSpace=wrap;html=1;fillColor=#f8cecc;strokeColor=#b85450;" parent="1" vertex="1">
                    <mxGeometry x="1131.13" y="770" width="210" height="60" as="geometry"/>
                </mxCell>
                <mxCell id="41" value="self.compare_AEPs()" style="rounded=1;whiteSpace=wrap;html=1;fillColor=#f8cecc;strokeColor=#b85450;" parent="1" vertex="1">
                    <mxGeometry x="1131.13" y="880" width="210" height="60" as="geometry"/>
                </mxCell>
                <mxCell id="42" value="self.show_wind_rose()" style="rounded=1;whiteSpace=wrap;html=1;fillColor=#f8cecc;strokeColor=#b85450;" parent="1" vertex="1">
                    <mxGeometry x="1131.13" y="1011.5" width="210" height="60" as="geometry"/>
                </mxCell>
                <mxCell id="45" value="Step 1: Data initialization" style="shape=hexagon;perimeter=hexagonPerimeter2;whiteSpace=wrap;html=1;fixedSize=1;fillColor=#e1d5e7;strokeColor=#9673a6;" parent="1" vertex="1">
                    <mxGeometry x="621.13" y="560" width="170" height="30" as="geometry"/>
                </mxCell>
                <mxCell id="47" value="Step 2: Data processing &amp;amp; visualization" style="shape=hexagon;perimeter=hexagonPerimeter2;whiteSpace=wrap;html=1;fixedSize=1;fillColor=#e1d5e7;strokeColor=#9673a6;" parent="1" vertex="1">
                    <mxGeometry x="1151.13" y="560" width="170" height="40" as="geometry"/>
                </mxCell>
                <mxCell id="48" value="" style="endArrow=classic;html=1;strokeWidth=2;exitX=0.5;exitY=1;exitDx=0;exitDy=0;entryX=0.5;entryY=0;entryDx=0;entryDy=0;" parent="1" source="37" target="38" edge="1">
                    <mxGeometry width="50" height="50" relative="1" as="geometry">
                        <mxPoint x="346.13" y="830" as="sourcePoint"/>
                        <mxPoint x="706.63" y="970" as="targetPoint"/>
                        <Array as="points"/>
                    </mxGeometry>
                </mxCell>
                <mxCell id="49" value="" style="endArrow=classic;html=1;strokeWidth=2;exitX=0.5;exitY=1;exitDx=0;exitDy=0;entryX=0.5;entryY=0;entryDx=0;entryDy=0;" parent="1" source="38" target="64" edge="1">
                    <mxGeometry width="50" height="50" relative="1" as="geometry">
                        <mxPoint x="958.63" y="710" as="sourcePoint"/>
                        <mxPoint x="1113.63" y="780" as="targetPoint"/>
                        <Array as="points"/>
                    </mxGeometry>
                </mxCell>
                <mxCell id="50" value="" style="endArrow=classic;html=1;entryX=0.5;entryY=0;entryDx=0;entryDy=0;strokeWidth=2;" parent="1" target="35" edge="1">
                    <mxGeometry width="50" height="50" relative="1" as="geometry">
                        <mxPoint x="706.13" y="600" as="sourcePoint"/>
                        <mxPoint x="346.13" y="660" as="targetPoint"/>
                    </mxGeometry>
                </mxCell>
                <mxCell id="52" value="" style="endArrow=classic;html=1;entryX=0.5;entryY=0;entryDx=0;entryDy=0;strokeWidth=2;exitX=0.5;exitY=1;exitDx=0;exitDy=0;" parent="1" source="35" target="36" edge="1">
                    <mxGeometry width="50" height="50" relative="1" as="geometry">
                        <mxPoint x="705.68" y="710" as="sourcePoint"/>
                        <mxPoint x="705.68" y="760" as="targetPoint"/>
                    </mxGeometry>
                </mxCell>
                <mxCell id="53" value="" style="endArrow=classic;html=1;entryX=0.5;entryY=0;entryDx=0;entryDy=0;strokeWidth=2;exitX=0.5;exitY=1;exitDx=0;exitDy=0;" parent="1" source="36" target="37" edge="1">
                    <mxGeometry width="50" height="50" relative="1" as="geometry">
                        <mxPoint x="705.68" y="820" as="sourcePoint"/>
                        <mxPoint x="705.68" y="870" as="targetPoint"/>
                    </mxGeometry>
                </mxCell>
                <mxCell id="54" value="" style="endArrow=classic;html=1;entryX=0;entryY=0.5;entryDx=0;entryDy=0;strokeWidth=2;" parent="1" target="39" edge="1">
                    <mxGeometry width="50" height="50" relative="1" as="geometry">
                        <mxPoint x="987.63" y="690" as="sourcePoint"/>
                        <mxPoint x="896.13" y="670" as="targetPoint"/>
                    </mxGeometry>
                </mxCell>
                <mxCell id="55" value="" style="endArrow=classic;html=1;strokeWidth=2;exitX=1;exitY=0.5;exitDx=0;exitDy=0;" parent="1" edge="1" source="42">
                    <mxGeometry width="50" height="50" relative="1" as="geometry">
                        <mxPoint x="1347.63" y="1041.5" as="sourcePoint"/>
                        <mxPoint x="1387.63" y="1041.5" as="targetPoint"/>
                    </mxGeometry>
                </mxCell>
                <mxCell id="56" value="" style="endArrow=classic;html=1;entryX=0;entryY=0.5;entryDx=0;entryDy=0;strokeWidth=2;" parent="1" target="41" edge="1">
                    <mxGeometry width="50" height="50" relative="1" as="geometry">
                        <mxPoint x="987.63" y="910" as="sourcePoint"/>
                        <mxPoint x="1141.13" y="810" as="targetPoint"/>
                    </mxGeometry>
                </mxCell>
                <mxCell id="57" value="" style="endArrow=classic;html=1;entryX=0.25;entryY=0;entryDx=0;entryDy=0;strokeWidth=2;exitX=1;exitY=0.5;exitDx=0;exitDy=0;" parent="1" source="58" target="39" edge="1">
                    <mxGeometry width="50" height="50" relative="1" as="geometry">
                        <mxPoint x="1391.13" y="690" as="sourcePoint"/>
                        <mxPoint x="1141.13" y="700" as="targetPoint"/>
                        <Array as="points">
                            <mxPoint x="1183.63" y="620"/>
                        </Array>
                    </mxGeometry>
                </mxCell>
                <mxCell id="58" value="def pdf_weib()" style="rounded=0;whiteSpace=wrap;html=1;fillColor=#d5e8d4;strokeColor=#82b366;" parent="1" vertex="1">
                    <mxGeometry x="987.63" y="600" width="100" height="40" as="geometry"/>
                </mxCell>
                <mxCell id="59" value="&lt;span style=&quot;color: rgb(0, 0, 0);&quot;&gt;get_velocity_site()&lt;/span&gt;&lt;div style=&quot;&quot;&gt;get_angle_rad()&lt;/div&gt;&lt;div style=&quot;&quot;&gt;get_angle_deg()&lt;/div&gt;&lt;div style=&quot;&quot;&gt;get_alpha()&lt;/div&gt;&lt;div style=&quot;&quot;&gt;calculate_wind_at_height()&lt;/div&gt;" style="rounded=1;whiteSpace=wrap;html=1;fillColor=#f8cecc;strokeColor=#b85450;align=center;" parent="1" vertex="1">
                    <mxGeometry x="474.13" y="858.5" width="160" height="80" as="geometry"/>
                </mxCell>
                <mxCell id="60" value="&lt;font style=&quot;font-size: 72px;&quot;&gt;}&lt;/font&gt;" style="text;html=1;align=center;verticalAlign=middle;whiteSpace=wrap;rounded=0;fontStyle=0;fontFamily=Times New Roman;" parent="1" vertex="1">
                    <mxGeometry x="618.13" y="853.5" width="60" height="80" as="geometry"/>
                </mxCell>
                <mxCell id="61" value="v_x_sites : dict[str, numpy.ndarray]&lt;div&gt;v_y_sites : dict[str, numpy.ndarray]&lt;u&gt;&lt;/u&gt;&lt;/div&gt;" style="text;html=1;align=left;verticalAlign=middle;whiteSpace=wrap;rounded=0;" vertex="1" parent="1">
                    <mxGeometry x="711.13" y="720" width="186.5" height="30" as="geometry"/>
                </mxCell>
                <mxCell id="62" value="interp_dict : dict[str, numpy.ndarray]&lt;div&gt;v_x_point : numpy.ndarray&lt;/div&gt;&lt;div&gt;&lt;span style=&quot;color: rgb(63, 63, 63);&quot;&gt;v_y_point : numpy.ndarray&lt;/span&gt;&lt;u&gt;&lt;/u&gt;&lt;/div&gt;" style="text;html=1;align=left;verticalAlign=middle;whiteSpace=wrap;rounded=0;" vertex="1" parent="1">
                    <mxGeometry x="711.13" y="820" width="196.5" height="51.5" as="geometry"/>
                </mxCell>
                <mxCell id="63" value="" style="endArrow=classic;html=1;entryX=0.5;entryY=0;entryDx=0;entryDy=0;strokeWidth=2;exitX=0.5;exitY=1;exitDx=0;exitDy=0;" edge="1" parent="1" source="39" target="40">
                    <mxGeometry width="50" height="50" relative="1" as="geometry">
                        <mxPoint x="1091.13" y="700" as="sourcePoint"/>
                        <mxPoint x="1141.63" y="700" as="targetPoint"/>
                    </mxGeometry>
                </mxCell>
                <mxCell id="64" value="Inital object" style="rounded=1;whiteSpace=wrap;html=1;fillColor=#dae8fc;strokeColor=#6c8ebf;" vertex="1" parent="1">
                    <mxGeometry x="661.13" y="1090" width="90" height="60" as="geometry"/>
                </mxCell>
                <mxCell id="65" value="" style="endArrow=classic;html=1;strokeWidth=2;exitX=0.5;exitY=1;exitDx=0;exitDy=0;entryX=0.5;entryY=0;entryDx=0;entryDy=0;" edge="1" parent="1" source="40" target="41">
                    <mxGeometry width="50" height="50" relative="1" as="geometry">
                        <mxPoint x="1246.63" y="730" as="sourcePoint"/>
                        <mxPoint x="1236.63" y="880" as="targetPoint"/>
                    </mxGeometry>
                </mxCell>
                <mxCell id="66" value="" style="endArrow=classic;html=1;strokeWidth=2;entryX=0;entryY=0.5;entryDx=0;entryDy=0;" edge="1" parent="1" target="40">
                    <mxGeometry width="50" height="50" relative="1" as="geometry">
                        <mxPoint x="987.63" y="800" as="sourcePoint"/>
                        <mxPoint x="1094.63" y="800.26" as="targetPoint"/>
                    </mxGeometry>
                </mxCell>
                <mxCell id="67" value="year : int&lt;div&gt;show_plot : bool&lt;/div&gt;" style="text;html=1;align=left;verticalAlign=middle;whiteSpace=wrap;rounded=0;" vertex="1" parent="1">
                    <mxGeometry x="987.63" y="650" width="130" height="30" as="geometry"/>
                </mxCell>
                <mxCell id="68" value="" style="endArrow=classic;html=1;entryX=0.5;entryY=0;entryDx=0;entryDy=0;strokeWidth=2;exitX=0.5;exitY=1;exitDx=0;exitDy=0;" edge="1" parent="1" target="39">
                    <mxGeometry width="50" height="50" relative="1" as="geometry">
                        <mxPoint x="1235.7700000000002" y="610" as="sourcePoint"/>
                        <mxPoint x="1235.7700000000002" y="660" as="targetPoint"/>
                    </mxGeometry>
                </mxCell>
                <mxCell id="69" value="wind_speeds : numpy.ndarray" style="text;html=1;align=left;verticalAlign=middle;whiteSpace=wrap;rounded=0;" vertex="1" parent="1">
                    <mxGeometry x="1241.13" y="620" width="166.5" height="30" as="geometry"/>
                </mxCell>
                <mxCell id="70" value="k : int&lt;div&gt;A : int&lt;/div&gt;" style="text;html=1;align=left;verticalAlign=middle;whiteSpace=wrap;rounded=0;" vertex="1" parent="1">
                    <mxGeometry x="1241.13" y="730" width="166.5" height="30" as="geometry"/>
                </mxCell>
                <mxCell id="71" value="&lt;div&gt;power_curve : pandas.DataFrame&lt;/div&gt;year : int&lt;div&gt;show_curve : bool&lt;/div&gt;" style="text;html=1;align=left;verticalAlign=middle;whiteSpace=wrap;rounded=0;" vertex="1" parent="1">
                    <mxGeometry x="987.63" y="730" width="130" height="60" as="geometry"/>
                </mxCell>
                <mxCell id="73" value="&lt;div&gt;latitude_point : int&lt;/div&gt;&lt;div&gt;longitude_point : int&lt;/div&gt;&lt;span style=&quot;background-color: transparent;&quot;&gt;height_point : int&lt;/span&gt;&lt;div&gt;ref_heights : list[int]&lt;/div&gt;&lt;div&gt;name : str or None&lt;/div&gt;" style="text;html=1;align=left;verticalAlign=middle;whiteSpace=wrap;rounded=0;" vertex="1" parent="1">
                    <mxGeometry x="40" y="720" width="150" height="75" as="geometry"/>
                </mxCell>
                <mxCell id="74" value="year : int&lt;div&gt;show_comparison : bool&lt;/div&gt;" style="text;html=1;align=left;verticalAlign=middle;whiteSpace=wrap;rounded=0;" vertex="1" parent="1">
                    <mxGeometry x="987.63" y="870" width="140" height="30" as="geometry"/>
                </mxCell>
                <mxCell id="75" value="&lt;font style=&quot;font-size: 8px;&quot;&gt;Exceptions&lt;/font&gt;" style="rhombus;whiteSpace=wrap;html=1;fillColor=#eeeeee;strokeColor=#36393d;" vertex="1" parent="1">
                    <mxGeometry x="751.13" y="881.75" width="70" height="36.5" as="geometry"/>
                </mxCell>
                <mxCell id="76" value="AEP : int&lt;div&gt;CF : int&lt;/div&gt;" style="text;html=1;align=left;verticalAlign=middle;whiteSpace=wrap;rounded=0;" vertex="1" parent="1">
                    <mxGeometry x="1241.13" y="840" width="166.5" height="30" as="geometry"/>
                </mxCell>
                <mxCell id="77" value="" style="endArrow=classic;html=1;strokeWidth=2;exitX=1;exitY=0.5;exitDx=0;exitDy=0;" edge="1" parent="1" source="41">
                    <mxGeometry width="50" height="50" relative="1" as="geometry">
                        <mxPoint x="1246.63" y="840" as="sourcePoint"/>
                        <mxPoint x="1387.63" y="910" as="targetPoint"/>
                    </mxGeometry>
                </mxCell>
                <mxCell id="78" value="AEPs : dict[str, int]&lt;div&gt;CFs : dict[str, int]&lt;/div&gt;" style="text;html=1;align=left;verticalAlign=middle;whiteSpace=wrap;rounded=0;" vertex="1" parent="1">
                    <mxGeometry x="1347.63" y="865" width="166.5" height="30" as="geometry"/>
                </mxCell>
                <mxCell id="79" value="wind_speed : numpy.ndarray&lt;div&gt;wind_direction :&amp;nbsp;&lt;span style=&quot;color: rgb(0, 0, 0); background-color: transparent;&quot;&gt;numpy.ndarray&lt;/span&gt;&lt;/div&gt;" style="text;html=1;align=left;verticalAlign=middle;whiteSpace=wrap;rounded=0;" vertex="1" parent="1">
                    <mxGeometry x="1345.88" y="996.5" width="170" height="30" as="geometry"/>
                </mxCell>
                <mxCell id="80" value="wind_speeds : numpy.ndarray" style="text;html=1;align=left;verticalAlign=middle;whiteSpace=wrap;rounded=0;" vertex="1" parent="1">
                    <mxGeometry x="1241.13" y="970" width="166.5" height="30" as="geometry"/>
                </mxCell>
                <mxCell id="81" value="" style="endArrow=classic;html=1;strokeWidth=2;entryX=0.5;entryY=0;entryDx=0;entryDy=0;" edge="1" parent="1" target="42">
                    <mxGeometry width="50" height="50" relative="1" as="geometry">
                        <mxPoint x="1236.63" y="960" as="sourcePoint"/>
                        <mxPoint x="1246.63" y="890" as="targetPoint"/>
                    </mxGeometry>
                </mxCell>
                <mxCell id="82" value="ds_all : xarray.Dataset" style="text;html=1;align=left;verticalAlign=middle;whiteSpace=wrap;rounded=0;" vertex="1" parent="1">
                    <mxGeometry x="711.13" y="610" width="150" height="30" as="geometry"/>
                </mxCell>
                <mxCell id="83" value="thetas_h_ref : numpy.ndarray&lt;div&gt;h_refs : list&lt;/div&gt;&lt;div&gt;h_points : int&lt;/div&gt;" style="text;html=1;align=left;verticalAlign=middle;whiteSpace=wrap;rounded=0;" vertex="1" parent="1">
                    <mxGeometry x="711.13" y="930" width="196.5" height="51.5" as="geometry"/>
                </mxCell>
                <mxCell id="84" value="theta_rad : numpy.ndarray&lt;div&gt;theta_deg : numpy.ndarray&lt;/div&gt;" style="text;html=1;align=left;verticalAlign=middle;whiteSpace=wrap;rounded=0;" vertex="1" parent="1">
                    <mxGeometry x="711.13" y="1038.5" width="196.5" height="51.5" as="geometry"/>
                </mxCell>
                <mxCell id="85" value="" style="verticalLabelPosition=bottom;shadow=0;dashed=0;align=center;html=1;verticalAlign=top;strokeWidth=1;shape=mxgraph.mockup.graphics.plotChart;strokeColor=none;strokeColor2=#aaaaaa;strokeColor3=#666666;fillColor2=#99aaff,#0022ff,#008cff;" vertex="1" parent="1">
                    <mxGeometry x="1391.13" y="1030" width="60" height="30" as="geometry"/>
                </mxCell>
                <mxCell id="86" value="" style="verticalLabelPosition=bottom;shadow=0;dashed=0;align=center;html=1;verticalAlign=top;strokeWidth=1;shape=mxgraph.mockup.graphics.plotChart;strokeColor=none;strokeColor2=#aaaaaa;strokeColor3=#666666;fillColor2=#99aaff,#0022ff,#008cff;" vertex="1" parent="1">
                    <mxGeometry x="1391.13" y="895" width="60" height="30" as="geometry"/>
                </mxCell>
                <mxCell id="88" value="" style="endArrow=classic;html=1;strokeWidth=2;exitX=1;exitY=0.5;exitDx=0;exitDy=0;" edge="1" parent="1" source="39">
                    <mxGeometry width="50" height="50" relative="1" as="geometry">
                        <mxPoint x="1337.63" y="690" as="sourcePoint"/>
                        <mxPoint x="1387.13" y="690" as="targetPoint"/>
                    </mxGeometry>
                </mxCell>
                <mxCell id="89" value="" style="verticalLabelPosition=bottom;shadow=0;dashed=0;align=center;html=1;verticalAlign=top;strokeWidth=1;shape=mxgraph.mockup.graphics.plotChart;strokeColor=none;strokeColor2=#aaaaaa;strokeColor3=#666666;fillColor2=#99aaff,#0022ff,#008cff;" vertex="1" parent="1">
                    <mxGeometry x="1390.63" y="675" width="60" height="30" as="geometry"/>
                </mxCell>
            </root>
        </mxGraphModel>
    </diagram>
</mxfile>